<svg width="16" height="16" viewBox="0 0 16 16" fill="none" xmlns="http://www.w3.org/2000/svg">
<path d="M3.66667 2C2.74667 2 2 2.74667 2 3.66667V12.3333C2 13.2533 2.74667 14 3.66667 14H12.3333C13.2533 14 14 13.2533 14 12.3333V10.3333C14 10.0681 14.1054 9.81376 14.2929 9.62623C14.4804 9.43869 14.7348 9.33333 15 9.33333C15.2652 9.33333 15.5196 9.43869 15.7071 9.62623C15.8946 9.81376 16 10.0681 16 10.3333V12.3333C16 13.3058 15.6137 14.2384 14.9261 14.9261C14.2384 15.6137 13.3058 16 12.3333 16H3.66667C2.69421 16 1.76158 15.6137 1.07394 14.9261C0.386309 14.2384 0 13.3058 0 12.3333V3.66667C0 2.69421 0.386309 1.76158 1.07394 1.07394C1.76158 0.386309 2.69421 0 3.66667 0H5.66667C5.93188 5.58902e-09 6.18624 0.105357 6.37377 0.292893C6.56131 0.480429 6.66667 0.734784 6.66667 1C6.66667 1.26522 6.56131 1.51957 6.37377 1.70711C6.18624 1.89464 5.93188 2 5.66667 2H3.66667ZM8 1C8 0.734784 8.10536 0.480429 8.29289 0.292893C8.48043 0.105357 8.73478 0 9 0H15C15.2652 0 15.5196 0.105357 15.7071 0.292893C15.8946 0.480429 16 0.734784 16 1V7C16 7.26522 15.8946 7.51957 15.7071 7.70711C15.5196 7.89464 15.2652 8 15 8C14.7348 8 14.4804 7.89464 14.2929 7.70711C14.1054 7.51957 14 7.26522 14 7V3.41467L9.70667 7.708C9.61437 7.80347 9.50399 7.8796 9.38197 7.93195C9.25994 7.9843 9.12871 8.01182 8.99593 8.01291C8.86315 8.014 8.73148 7.98864 8.60861 7.9383C8.48574 7.88796 8.37412 7.81365 8.28027 7.71972C8.18642 7.62578 8.11222 7.5141 8.062 7.39118C8.01178 7.26826 7.98654 7.13657 7.98775 7.00379C7.98897 6.87101 8.01662 6.7398 8.06908 6.61782C8.12155 6.49584 8.19778 6.38554 8.29333 6.29333L12.5867 2H9C8.73478 2 8.48043 1.89464 8.29289 1.70711C8.10536 1.51957 8 1.26522 8 1Z" fill="black"/>
</svg>
